<svg height="512pt" viewBox="-44 0 512 512" width="512pt" xmlns="http://www.w3.org/2000/svg"><path d="m391.53125 214.710938h-148.308594v-33.027344h109.1875c10.128906 0 19.824219-4.199219 25.933594-11.230469l39.121094-45.03125c8.847656-10.1875 8.847656-24.414063 0-34.597656l-39.121094-45.035157c-6.109375-7.03125-15.804688-11.226562-25.933594-11.226562h-109.1875v-6.210938c0-15.632812-12.71875-28.351562-28.351562-28.351562h-5.632813c-15.632812 0-28.351562 12.71875-28.351562 28.351562v6.210938h-69.332031c-4.144532 0-7.5 3.359375-7.5 7.5s3.355468 7.5 7.5 7.5h240.851562c5.851562 0 11.3125 2.265625 14.609375 6.066406l39.121094 45.035156c3.9375 4.53125 3.9375 10.386719 0 14.917969l-39.121094 45.035157c-3.296875 3.796874-8.761719 6.066406-14.609375 6.066406h-319.828125c-9.691406 0-17.578125-6.066406-17.578125-13.527344v-90.066406c0-7.460938 7.886719-13.527344 17.578125-13.527344h50.976563c4.140624 0 7.5-3.359375 7.5-7.5s-3.359376-7.5-7.5-7.5h-50.976563c-17.964844 0-32.578125 12.796875-32.578125 28.527344v90.070312c0 15.726563 14.613281 28.523438 32.578125 28.523438h148.308594v33.027344h-109.1875c-10.128907 0-19.824219 4.199218-25.933594 11.230468l-39.121094 45.035156c-8.847656 10.183594-8.847656 24.410157 0 34.59375l39.121094 45.035157c6.109375 7.03125 15.804687 11.230469 25.933594 11.230469h109.1875v89.664062h-8.832031c-14.613282 0-26.5 11.886719-26.5 26.5v26.5c0 4.140625 3.355468 7.5 7.5 7.5h45c4.140624 0 7.5-3.359375 7.5-7.5s-3.359376-7.5-7.5-7.5h-37.5v-19c0-6.339844 5.160156-11.5 11.5-11.5h80c6.339843 0 11.5 5.160156 11.5 11.5v19h-37.5c-4.144532 0-7.5 3.359375-7.5 7.5s3.355468 7.5 7.5 7.5h45c4.140624 0 7.5-3.359375 7.5-7.5v-26.5c0-14.613281-11.890626-26.5-26.5-26.5h-8.832032v-89.667969h148.308594c17.960938 0 32.578125-12.796875 32.578125-28.523437v-90.074219c0-15.726563-14.617187-28.523437-32.578125-28.523437zm-195.644531-186.359376c0-7.363281 5.988281-13.351562 13.351562-13.351562h5.632813c7.359375 0 13.351562 5.988281 13.351562 13.351562v6.210938h-32.335937zm32.335937 153.332032v32.933594h-32.335937v-32.933594zm0 269.816406h-32.335937v-89.667969h32.335937zm180.886719-118.191406c0 7.457031-7.886719 13.527344-17.578125 13.527344h-319.832031c-5.847657 0-11.308594-2.269532-14.605469-6.066407l-39.125-45.035156c-3.9375-4.53125-3.9375-10.390625 0-14.921875l39.125-45.035156c3.296875-3.796875 8.757812-6.0625 14.605469-6.0625h319.832031c9.691406 0 17.578125 6.066406 17.578125 13.523437zm0 0"/></svg>